<svg xmlns:dc="http://purl.org/dc/elements/1.1/" xmlns:cc="http://creativecommons.org/ns#" xmlns:rdf="http://www.w3.org/1999/02/22-rdf-syntax-ns#" xmlns:svg="http://www.w3.org/2000/svg" xmlns="http://www.w3.org/2000/svg" xmlns:sodipodi="http://sodipodi.sourceforge.net/DTD/sodipodi-0.dtd" xmlns:inkscape="http://www.inkscape.org/namespaces/inkscape" viewBox="0 0 10.583333 13.2291675" version="1.1" x="0px" y="0px"><svg:g><svg:path style="color:#000000;font-style:normal;font-variant:normal;font-weight:normal;font-stretch:normal;font-size:medium;line-height:normal;font-family:sans-serif;font-variant-ligatures:normal;font-variant-position:normal;font-variant-caps:normal;font-variant-numeric:normal;font-variant-alternates:normal;font-feature-settings:normal;text-indent:0;text-align:start;text-decoration:none;text-decoration-line:none;text-decoration-style:solid;text-decoration-color:#000000;letter-spacing:normal;word-spacing:normal;text-transform:none;writing-mode:lr-tb;direction:ltr;text-orientation:mixed;dominant-baseline:auto;baseline-shift:baseline;text-anchor:start;white-space:normal;shape-padding:0;clip-rule:nonzero;display:inline;overflow:visible;visibility:visible;opacity:1;isolation:auto;mix-blend-mode:normal;color-interpolation:sRGB;color-interpolation-filters:linearRGB;solid-color:#000000;solid-opacity:1;vector-effect:none;fill:#000000;fill-opacity:1;fill-rule:nonzero;stroke:none;stroke-width:0.47875416;stroke-linecap:round;stroke-linejoin:round;stroke-miterlimit:4;stroke-dasharray:none;stroke-dashoffset:0;stroke-opacity:1;color-rendering:auto;image-rendering:auto;shape-rendering:auto;text-rendering:auto;enable-background:accumulate" d="m 3.8065534,0.79402567 c -0.356917,0 -0.693477,0.191622 -0.865195,0.51334403 -0.200941,0.376368 -0.133538,0.842395 0.160318,1.155794 v 0 c 0.009,0.0091 0.01357,0.01448 0.02171,0.02171 l -1.626707,5.578663 a 0.23940096,0.23940096 0 0 0 0.292048,0.298109 l 0.68769,-0.185198 v 0.789377 c 0,0.452185 0.371573,0.823759 0.823848,0.823759 0.452185,0 0.823758,-0.371574 0.823758,-0.823759 v -1.233601 l 0.557767,-0.150456 v 0.168642 c 0,0.452275 0.371573,0.823757 0.823757,0.823757 0.452275,0 0.823849,-0.371482 0.823849,-0.823757 v -0.612775 l 1.072197,-0.288881 c 0.215416,0.216774 0.524834,0.335384 0.847371,0.293224 0.545553,-0.07147 0.924273,-0.587985 0.833891,-1.132 -0.200127,-1.282456 -0.801864,-2.477516 -1.717452,-3.412013 -0.915407,-0.934225 -2.097438,-1.560118 -3.3751,-1.78657303 -0.05247,-0.01 -0.10522,-0.01538 -0.157513,-0.01719 v 0 c -0.009,-2.71e-4 -0.01719,-3.61e-4 -0.02624,-4.52e-4 z m -0.0091,0.47833103 c 0.0091,0 0.01176,9.1e-5 0.0181,2.71e-4 v 0 c 0.02714,0 0.05519,0 0.08233,0.0091 a 0.23940103,0.23940103 0 0 0 0,6.34e-4 c 1.179588,0.20845 2.273046,0.786664 3.119694,1.650772 0.846557,0.864019 1.402424,1.969148 1.586717,3.152627 a 0.23940103,0.23940103 0 0 0 4.53e-4,0 c 0.04795,0.28933 -0.138241,0.54166 -0.423684,0.579025 -0.187732,0.02443 -0.368497,-0.05609 -0.482312,-0.195784 a 0.23940096,0.23940096 0 0 0 -0.04338,-0.06152 c -0.03619,-0.05971 -0.06152,-0.127296 -0.07147,-0.200308 a 0.23940103,0.23940103 0 0 0 -3.62e-4,0 c -0.150189,-0.964353 -0.602103,-1.862299 -1.290332,-2.564642 -0.688229,-0.702433 -1.576675,-1.172622 -2.537771,-1.34244 a 0.23940103,0.23940103 0 0 0 0,-5.43e-4 c -0.06966,-0.01176 -0.136524,-0.03709 -0.196598,-0.07419 a 0.23940096,0.23940096 0 0 0 -0.05428,-0.038 c -0.0199,-0.01629 -0.038,-0.03348 -0.05609,-0.05157 -0.157514,-0.168008 -0.189813,-0.410748 -0.08685,-0.602912 0.08685,-0.163033 0.25242,-0.260382 0.435899,-0.260473 z m -0.252639,1.468922 c 0.04252,0.01267 0.08685,0.02352 0.131457,0.03076 0.861395,0.152447 1.65973,0.574594 2.278385,1.205916 0.114087,0.116529 0.221026,0.23903 0.320365,0.366778 -0.09934,0.04705 -0.190989,0.110739 -0.270876,0.188817 a 0.23940096,0.23940096 0 0 0 -9.1e-5,9.1e-5 c -0.394191,0.386049 -0.400886,1.025874 -0.01448,1.419975 0.295123,0.301095 0.73826,0.375826 1.106757,0.222021 0.009,0.03529 0.01267,0.07057 0.01809,0.105583 0.0091,0.04795 0.01719,0.095 0.03076,0.140414 l -1.119786,0.301728 a 0.23940096,0.23940096 0 0 0 -0.177146,0.231068 v 0.796254 c 0,0.195331 -0.149643,0.345064 -0.345065,0.345064 -0.195331,0 -0.344974,-0.149642 -0.344974,-0.345064 v -0.481136 a 0.23940096,0.23940096 0 0 0 -0.301717,-0.231068 l -1.03655,0.279562 a 0.23940096,0.23940096 0 0 0 -0.177056,0.231158 v 1.4169 c 0,0.195331 -0.149643,0.344974 -0.344974,0.344974 -0.195422,0 -0.345065,-0.149643 -0.345065,-0.344974 v -1.101782 a 0.23940096,0.23940096 0 0 0 -0.301637,-0.231159 l -0.578033,0.155705 0.146747,-0.503121 c 0.339637,0.09753 0.71709,0.01086 0.980367,-0.246449 a 0.23940096,0.23940096 0 0 0 9.1e-5,-9.1e-5 c 0.394191,-0.385958 0.400886,-1.025693 0.01447,-1.419885 a 0.23940096,0.23940096 0 0 0 -2.71e-4,-2.71e-4 c -0.121144,-0.123315 -0.270786,-0.211888 -0.433457,-0.259658 z m 0.737627,0.989776 c -0.202388,3.62e-4 -0.404867,0.076 -0.559576,0.22754 -0.314213,0.30788 -0.31937,0.819415 -0.01176,1.133718 0.30779,0.314213 0.819415,0.31937 1.133629,0.01176 0.314213,-0.30788 0.31946,-0.819415 0.01176,-1.133628 -0.156337,-0.159595 -0.36524,-0.239482 -0.574142,-0.23912 z m 0,0.475798 c 0.08324,-1.81e-4 0.166742,0.03257 0.231159,0.09834 0.126843,0.129467 0.124762,0.329865 -0.009,0.456708 -0.129467,0.126753 -0.329865,0.124672 -0.456708,-0.0091 -0.126753,-0.129376 -0.124672,-0.329865 0.0091,-0.456618 0.06333,-0.06243 0.144576,-0.09364 0.225459,-0.09373 z m 2.266804,0.543381 c 0.181218,0.298471 0.324708,0.61766 0.426943,0.950601 -0.204198,0.124491 -0.470279,0.0969 -0.645888,-0.08233 v -9e-5 c -0.205012,-0.209264 -0.201574,-0.537772 0.009,-0.742693 0.05971,-0.05881 0.132452,-0.101059 0.211254,-0.125577 z m -3.902829,1.06894 c 0.08505,0.02533 0.16258,0.07147 0.22573,0.135258 0.204741,0.209264 0.201303,0.537681 -0.0091,0.742603 -0.138783,0.135619 -0.334114,0.180675 -0.511532,0.129377 z m 2.108204,0.04795 c -0.09454,2.72e-4 -0.189088,0.03619 -0.259929,0.106578 -0.141771,0.141771 -0.141771,0.376911 0,0.518682 v -1.81e-4 c 0.141681,0.141772 0.378178,0.143038 0.519859,0 0.141771,-0.141681 0.141771,-0.379444 0,-0.521215 -0.07057,-0.07057 -0.165385,-0.105945 -0.25993,-0.105673 z"/></svg:g></svg>