<svg xmlns="http://www.w3.org/2000/svg" xmlns:xlink="http://www.w3.org/1999/xlink" version="1.1" x="0px" y="0px" viewBox="0 0 100 125" enable-background="new 0 0 100 100" xml:space="preserve"><g><path d="M89.839,8.287c-4.152-3.203-9.679-4.896-15.983-4.896c-5.727,0-11.732,1.426-17.334,3.992   c-0.045,0.018-0.094,0.023-0.138,0.043c-0.183,0.084-0.355,0.185-0.537,0.271c-0.659,0.314-1.312,0.642-1.957,0.988   c-0.343,0.184-0.68,0.375-1.018,0.566c-0.578,0.329-1.149,0.669-1.714,1.022c-0.265,0.166-0.531,0.328-0.792,0.499   c-0.732,0.479-1.448,0.98-2.152,1.5c-0.194,0.143-0.384,0.29-0.576,0.437c-0.756,0.577-1.5,1.168-2.215,1.791l-5.887,5.117   c0,0,0,0,0,0L26.167,31.24l-2.849,2.476c0,0,0,0-0.001,0.001l-8.245,7.167c-7.903,6.869-12.3,15.463-12.063,23.579   c0.138,4.726,1.945,8.98,5.109,12.258v3.429c0,0.073,0.004,0.146,0.012,0.219c0.519,4.702,2.808,8.741,6.62,11.681   c3.866,2.982,9.01,4.559,14.875,4.559c9.111,0,18.993-3.862,26.432-10.331l22.808-19.825l2.773-2.41c0,0,0,0,0-0.001l2.517-2.188   c7.178-6.24,11.248-14.05,11.203-21.474c0.011-0.083,0.016-0.168,0.016-0.254v-8.542c1.146-3.05,1.705-6.149,1.616-9.182   C96.826,16.73,94.286,11.717,89.839,8.287z M69.466,59.423l8.86-7.702v9.901l-8.86,7.701V59.423z M29.371,33.754l8.383-7.287   l39.085,21.246l-1.072,0.932l-4.021,3.495l-4.544,3.95L28.117,34.845L29.371,33.754z M41.623,23.104   c0.837-0.039,1.677-0.073,2.507-0.073c16.233,0,30.98,7.334,38.949,19.222c-0.256,0.235-0.503,0.474-0.768,0.704l-2.25,1.956   L40.976,23.667L41.623,23.104z M48.048,17.518c0.627-0.545,1.278-1.064,1.938-1.572c0.173-0.133,0.347-0.266,0.522-0.396   c0.637-0.474,1.284-0.933,1.948-1.371c0.167-0.11,0.339-0.213,0.507-0.32c0.549-0.352,1.107-0.69,1.674-1.016   c0.208-0.12,0.414-0.242,0.624-0.358c0.69-0.382,1.392-0.747,2.106-1.091c0.078-0.038,0.156-0.072,0.234-0.109   c14.276,1.352,26.861,8.407,33.954,19.008c-0.106,0.277-0.226,0.553-0.344,0.83c-0.096,0.228-0.19,0.456-0.294,0.683   c-0.148,0.322-0.309,0.644-0.472,0.965c-0.076,0.149-0.151,0.298-0.23,0.447c-0.184,0.347-0.375,0.692-0.576,1.036   c-0.058,0.099-0.119,0.198-0.178,0.296c-0.699,1.164-1.495,2.311-2.381,3.43c-0.069,0.086-0.134,0.174-0.204,0.26   c-0.233,0.289-0.479,0.574-0.724,0.859c-0.065,0.076-0.132,0.151-0.199,0.227c-8.442-12.06-23.281-19.649-39.69-20.256   L48.048,17.518z M87.396,11.454c3.529,2.723,5.465,6.55,5.597,11.066c0.027,0.918-0.029,1.852-0.151,2.793   c-6.588-8.287-16.369-14.229-27.565-16.813c2.872-0.724,5.765-1.108,8.579-1.108C79.269,7.391,83.951,8.796,87.396,11.454z    M24.895,37.646L63.98,58.892L51.96,69.34c-0.275,0.24-0.561,0.468-0.843,0.7C46.13,56.349,32.346,46.709,16.01,45.47   c0.543-0.532,1.1-1.057,1.686-1.566L24.895,37.646z M8.3,56.981c0.167-0.461,0.352-0.923,0.551-1.383   c0.064-0.147,0.12-0.295,0.188-0.443c0.243-0.536,0.515-1.069,0.8-1.601c0.12-0.223,0.245-0.446,0.372-0.668   c0.228-0.4,0.469-0.797,0.719-1.193c0.153-0.241,0.307-0.482,0.468-0.722c0.301-0.448,0.617-0.893,0.947-1.333   c0.077-0.103,0.157-0.204,0.234-0.305c16.582,0.06,30.81,9.513,35.167,23.196c-2.558,1.71-5.285,3.134-8.14,4.249   c-6.1-10.769-17.841-18.042-31.416-19.491C8.227,57.186,8.263,57.083,8.3,56.981z M7.209,61.226   c12.246,1.145,22.878,7.436,28.531,16.865c-3.207,0.9-6.454,1.387-9.603,1.387c-3.199,0-6.134-0.503-8.717-1.454   c-1.783-0.657-3.405-1.521-4.811-2.605c-0.001-0.001-0.002-0.002-0.003-0.002c-0.38-0.294-0.734-0.606-1.078-0.926   c-0.015-0.014-0.028-0.024-0.043-0.039c-0.003-0.003-0.008-0.004-0.011-0.008c-2.809-2.634-4.351-6.093-4.467-10.097   C6.978,63.323,7.054,62.279,7.209,61.226z M53.433,83.26C46.7,89.114,37.8,92.609,29.625,92.609c-4.973,0-9.272-1.289-12.432-3.726   c-2.902-2.239-4.655-5.296-5.075-8.847V79.92c0.367,0.222,0.75,0.424,1.134,0.625c0.106,0.056,0.207,0.119,0.314,0.173   c0.559,0.282,1.136,0.542,1.728,0.782c0.167,0.068,0.343,0.125,0.513,0.189c0.433,0.164,0.869,0.322,1.318,0.464   c0.228,0.072,0.461,0.135,0.694,0.202c0.407,0.117,0.818,0.227,1.236,0.325c0.251,0.059,0.503,0.113,0.758,0.166   c0.422,0.086,0.851,0.163,1.283,0.231c0.253,0.04,0.505,0.082,0.762,0.115c0.472,0.062,0.953,0.109,1.436,0.151   c0.225,0.019,0.446,0.045,0.673,0.06c0.713,0.046,1.435,0.074,2.17,0.074c0.001,0,0,0,0,0c1.412,0,2.841-0.096,4.276-0.264   c8.536-1,17.315-4.895,24.17-10.854L65.466,62.9v9.9L53.433,83.26z M91.375,39.848c-0.015,0.105-0.021,0.212-0.019,0.32   c0.125,5.959-3.239,12.601-9.03,17.947v-9.871l2.61-2.269c0.014-0.013,0.027-0.026,0.042-0.038c0.562-0.49,1.101-0.99,1.627-1.496   c0.134-0.129,0.263-0.261,0.395-0.391c0.014-0.014,0.028-0.028,0.042-0.042c0.015-0.013,0.032-0.023,0.046-0.037   c0.05-0.049,0.095-0.102,0.144-0.151c0.354-0.354,0.697-0.712,1.033-1.073c0.084-0.092,0.17-0.183,0.254-0.274   c0.022-0.025,0.044-0.049,0.067-0.074c1.014-1.118,1.95-2.264,2.791-3.437V39.848z"/></g></svg>