<svg xmlns="http://www.w3.org/2000/svg" xmlns:xlink="http://www.w3.org/1999/xlink" version="1.1" x="0px" y="0px" viewBox="0 0 100 125" enable-background="new 0 0 100 100" xml:space="preserve"><path d="M89.187,34.544c0.016-0.182,0.029-0.366,0.041-0.55c0.013-0.201,0.038-0.395,0.045-0.598  c-0.007-0.203-0.032-0.397-0.044-0.597c-1.14-18.14-23.856-24.493-38.831-24.704C35.265,7.882,12.18,15.086,11.524,33.395  c0,12.1,0,24.2,0,36.299c-0.665,18.55,24.81,25.102,38.875,25.301c14.965,0.211,37.692-6.839,38.83-24.702  c0.035-0.186,0.053-0.384,0.045-0.598c-0.022-11.654-0.045-23.308-0.067-34.962C89.206,34.666,89.192,34.609,89.187,34.544z   M27.059,18.759c6.941-4.17,15.368-5.552,23.339-5.664c12.052-0.17,33.328,5.062,33.875,20.301  c-0.266,7.407-5.278,12.331-11.751,15.475c-2.216,1.076-4.6,1.943-7.028,2.629c-5.297,1.497-10.784,2.136-15.096,2.197  c-4.354,0.061-9.911-0.587-15.261-2.153c-2.413-0.706-4.781-1.599-6.979-2.7c-6.419-3.216-11.375-8.197-11.635-15.447  C16.288,26.831,21.953,21.827,27.059,18.759z M69.346,29.646c1.403-2.902,5.714-0.366,4.317,2.524  c-4.786,9.901-18.087,13.014-28.123,11.414c-7.896-1.259-20.334-8.212-15.175-18.165c4.415-8.517,19.283-10.95,26.502-4.681  c3.393,2.946,4.479,6.914,2.191,10.909c-2.356,4.114-8.448,4.851-12.598,4.341c-3.157-0.388-3.195-5.393,0-5  c2.54,0.312,13.006-1.386,7.818-5.892c-3.026-2.628-7.836-3.285-11.676-2.362c-5.779,1.39-11.91,7.087-5.421,12.268  C45.808,41.888,64.199,40.295,69.346,29.646L69.346,29.646z"/></svg>