<?xml version="1.0" standalone="no"?>
<!DOCTYPE svg PUBLIC "-//W3C//DTD SVG 20010904//EN"
 "http://www.w3.org/TR/2001/REC-SVG-20010904/DTD/svg10.dtd">
<svg version="1.0" xmlns="http://www.w3.org/2000/svg"
 width="225.000000pt" height="225.000000pt" viewBox="0 0 225.000000 225.000000"
 preserveAspectRatio="xMidYMid meet">

<g transform="translate(0.000000,225.000000) scale(0.100000,-0.100000)"
fill="#000000" stroke="none">
<path d="M1735 2022 c-39 -28 -196 -143 -350 -256 -230 -170 -284 -206 -305
-201 -14 2 -76 10 -138 17 -248 26 -509 -34 -628 -144 -70 -65 -74 -80 -74
-305 0 -109 -4 -203 -8 -208 -4 -6 -55 -46 -115 -89 -115 -85 -132 -109 -106
-155 11 -19 24 -27 51 -29 30 -3 48 5 99 42 35 25 67 46 71 46 4 0 8 -16 8
-35 0 -20 6 -50 14 -68 20 -48 99 -115 179 -151 l71 -32 -118 -74 c-65 -40
-124 -80 -132 -87 -20 -20 -18 -77 4 -96 36 -33 68 -21 260 100 l186 118 91
-3 c301 -10 579 99 623 244 6 23 12 80 12 126 l0 86 395 246 c217 136 401 257
410 269 8 12 15 30 15 40 0 24 -44 67 -68 67 -11 0 -179 -100 -373 -221 -195
-122 -360 -223 -366 -226 -10 -4 -13 27 -13 133 0 125 -3 144 -24 190 -22 47
-101 124 -127 124 -28 0 21 40 301 245 332 243 341 252 303 303 -33 44 -68 40
-148 -16z m-676 -598 c90 -22 188 -70 214 -106 28 -37 13 -68 -50 -108 -99
-63 -277 -97 -453 -86 -264 16 -455 121 -370 206 44 44 166 91 285 110 86 13
289 4 374 -16z m-624 -369 c138 -62 359 -88 541 -66 93 12 268 61 289 82 19
19 25 7 25 -59 l0 -67 -308 -193 -308 -192 -76 19 c-80 21 -148 50 -188 81
-25 19 -25 20 -30 219 -3 111 -4 201 -4 201 1 0 27 -11 59 -25z m837 -374
c-37 -51 -246 -131 -308 -119 -12 2 45 43 151 109 l170 106 3 -35 c2 -23 -3
-44 -16 -61z"/>
<path d="M739 1380 c-56 -10 -104 -33 -113 -55 -13 -36 -6 -76 19 -99 50 -47
249 -60 339 -22 68 28 85 89 38 135 -43 43 -166 61 -283 41z"/>
</g>
</svg>
