<svg xmlns="http://www.w3.org/2000/svg" data-name="Layer 1" viewBox="0 0 64 80" x="0px" y="0px"><title>confetti-party-popper</title><path d="M2.29,61.71A1,1,0,0,0,3,62a1.14,1.14,0,0,0,.4-.08L38.21,46.86h0l.08,0v0a1,1,0,0,0,.32-.19h0c1.12-1.13-.81-4.14-3.38-7.22a23.49,23.49,0,0,1,2.21-1.65l-1.09-1.68a26.51,26.51,0,0,0-2.43,1.82c-1.3-1.45-2.65-2.85-3.8-4-1.43-1.43-3.24-3.17-5.06-4.72a24.87,24.87,0,0,0,4.83-8.84L28,19.74a23.11,23.11,0,0,1-4.46,8.15c-2.68-2.1-5.14-3.49-6.13-2.5a1,1,0,0,0-.17.28l-.14-.06-15,35A1,1,0,0,0,2.29,61.71ZM24,36.2V50.82l-3,1.3V32.88C22,34,23,35.15,24,36.2ZM35.17,46,31,47.79v-4.9A30.55,30.55,0,0,0,35.17,46ZM29,48.66,26,50V38.24c.89.89,1.92,1.88,3,2.88ZM19,53l-3,1.3V33.21l1.93-4.52c.3.52.66,1.07,1.07,1.64Zm-5,2.16-3,1.3V45H11L14,37.87ZM28.71,35.29A55,55,0,0,1,36.5,44.5a55,55,0,0,1-9.21-7.79A55,55,0,0,1,19.5,27.5,55,55,0,0,1,28.71,35.29ZM9,49.54v7.77L4.91,59.08Z"/><path d="M30.43,18.25A24.93,24.93,0,0,0,30.51,8l-2,.39a23,23,0,0,1-.07,9.43Z"/><path d="M39.55,36.52a23.28,23.28,0,0,1,15.06-2.07l.39-2a25.25,25.25,0,0,0-16.36,2.25Z"/><polygon points="35 5 32 5 32 7 35 7 35 10 37 10 37 7 40 7 40 5 37 5 37 2 35 2 35 5"/><polygon points="57 24 57 27 54 27 54 29 57 29 57 32 59 32 59 29 62 29 62 27 59 27 59 24 57 24"/><path d="M60.64,3.17a1,1,0,0,0-.4-1,1,1,0,0,0-1.05-.08l-2.46,1.3-2.46-1.3a1,1,0,0,0-1.05.08,1,1,0,0,0-.4,1l.47,2.74-2,1.94a1,1,0,0,0,.56,1.7l2.75.4,1.22,2.49a1,1,0,0,0,1.8,0L58.86,10l2.75-.4a1,1,0,0,0,.55-1.7l-2-1.94ZM58.05,8.05a1,1,0,0,0-.75.54l-.57,1.15L56.17,8.6a1,1,0,0,0-.76-.55l-1.26-.19L55.06,7a1,1,0,0,0,.29-.88l-.21-1.26,1.13.59a1,1,0,0,0,.93,0l1.13-.59-.22,1.26A1,1,0,0,0,58.4,7l.91.89Z"/><path d="M38,23a3,3,0,0,1-2.16,2.88l.55,1.92A5,5,0,0,0,40,23a3,3,0,0,1,2.29-2.92A3.36,3.36,0,0,1,43,20h1a5,5,0,0,0,5-5H47a3,3,0,0,1-3,3H43a5.15,5.15,0,0,0-1.18.14A5,5,0,0,0,38,23Z"/><path d="M31,31a3,3,0,0,1,3-3V26a5,5,0,0,0-5,5Z"/><rect x="60" y="16" width="2" height="2"/><rect x="45" y="41" width="2" height="2"/><rect x="18" y="14" width="2" height="2"/><rect x="43" y="12" width="2" height="2" transform="translate(29.59 56.56) rotate(-88.15)"/><rect x="45" y="5" width="2" height="2"/><rect x="46" y="26" width="2" height="2"/><rect x="52" y="17" width="2" height="2"/><rect x="57" y="39" width="2" height="2"/><rect x="35" y="17" width="2" height="2"/><rect x="21" y="3" width="2" height="2"/></svg>