<svg xmlns="http://www.w3.org/2000/svg" xmlns:xlink="http://www.w3.org/1999/xlink" version="1.1" x="0px" y="0px" viewBox="0 0 100 125" enable-background="new 0 0 100 100" xml:space="preserve"><g><g><path d="M49.2,84.5h-3.9c-14.5,0-26.3-11.6-26.6-26.1c-4.3-1.4-8.5-3.8-8-6.8c0.3-1.5,1.7-2.7,4-3.3c-1.9-2.3-2.5-4.5-1.6-6.1    c0.5-0.7,1.4-1.6,3.5-1.6c2.3,0,5.1,1,7.9,2.7c0.9,0.5,1.7,1.1,2.4,1.8h25.3C55,31.6,63.6,22.2,73.7,22.2h1    c5.2,0,9.7,3.6,10.8,8.6c0.6,0.4,2,1.4,3.3,2.2c0.4,0.3,0.6,0.7,0.5,1.2c-0.1,0.5-0.4,0.8-0.9,0.9l-3.8,0.8    c-1,1.2-2.4,1.9-3.9,1.9h-3.1c-1.1,1.5-1.8,3.3-1.8,5.1v15C75.8,72.5,63.8,84.5,49.2,84.5z M16.8,42.9c-0.8,0-1.4,0.2-1.6,0.5    c-0.4,0.6,0.2,2.5,2.7,4.7c0.3,0.3,0.5,0.8,0.3,1.2c-0.1,0.4-0.5,0.7-1,0.8c-2.7,0.3-4.1,1.2-4.2,1.8c-0.2,0.9,2,3,7.2,4.5    c0.5,0.1,0.8,0.6,0.8,1.1v0.3c0,13.4,10.9,24.3,24.3,24.3h3.9c13.4,0,24.3-10.9,24.3-24.3v-15c0-2.6,0.9-5.1,2.7-7    c0.2-0.2,0.5-0.4,0.9-0.4h3.7c0.9,0,1.8-0.5,2.3-1.3c0.2-0.3,0.4-0.4,0.7-0.5l1.5-0.3c-1.7-1.1-1.7-1.3-1.8-1.6c0,0,0-0.1,0-0.1    c-0.8-4.1-4.5-7.1-8.7-7.1h-1c-9.1,0-17,9-19.2,21.9c-0.1,0.5-0.4,0.8-0.9,0.9l-0.1,0c-0.1,0-0.2,0-0.3,0H26.6    c-0.3,0-0.6-0.1-0.8-0.3c-0.7-0.7-1.6-1.3-2.4-1.8C21,43.8,18.6,42.9,16.8,42.9z"/></g><g><path d="M81.5,26.7c-0.6,0-1.1-0.5-1.1-1.1c0-4.2-3-7.7-6.7-7.7c-3.7,0-6.7,3.5-6.7,7.7c0,0.6-0.5,1.1-1.1,1.1    c-0.6,0-1.1-0.5-1.1-1.1c0-5.5,4-10,9-10c5,0,9,4.5,9,10C82.6,26.2,82.1,26.7,81.5,26.7z"/></g><g><path d="M42.7,73.8c-6.1,0-11.1-5-11.1-11.1c0-0.8,0.1-1.5,0.2-2.2c-2.2-1.1-3.7-3.4-3.7-6c0-2,0.9-3.8,2.4-5.1    c0.5-0.4,1.2-0.4,1.6,0.1c0.4,0.5,0.4,1.2-0.1,1.6c-1,0.8-1.5,2.1-1.5,3.3c0,1.9,1.2,3.6,3.1,4.2c0.6,0.2,0.9,0.8,0.8,1.4    c-0.3,0.8-0.4,1.7-0.4,2.6c0,4.8,3.9,8.8,8.8,8.8c4.8,0,8.8-3.9,8.8-8.8c0-0.6,0.5-1.1,1.1-1.1c0.6,0,1.1,0.5,1.1,1.1    C53.8,68.8,48.8,73.8,42.7,73.8z"/></g></g><text x="0" y="115" fill="#000000" font-size="5px" font-weight="bold" font-family="'Helvetica Neue', Helvetica, Arial-Unicode, Arial, Sans-serif">Created by Aini</text><text x="0" y="120" fill="#000000" font-size="5px" font-weight="bold" font-family="'Helvetica Neue', Helvetica, Arial-Unicode, Arial, Sans-serif">from the Noun Project</text></svg>