<svg xmlns="http://www.w3.org/2000/svg" xmlns:xlink="http://www.w3.org/1999/xlink" version="1.1" x="0px" y="0px" viewBox="0 0 100 125" style="enable-background:new 0 0 100 100;" xml:space="preserve"><g><path d="M95.26,25.47c-0.42-0.14-0.84-0.21-1.26-0.21c-1.24,0-2.43,0.57-3.2,1.6c-3.31,4.41-9.05,5.26-18.14,6.27   c-7.78,0.87-16.59,1.86-25.65,6.39c-0.27,0.14-0.54,0.3-0.81,0.45c-1.03-2.76-2.48-5.31-4.38-7.62   C30.89,19.07,9.57,18.92,8.67,18.92c-1.72,0-3.25,1.1-3.79,2.74c-0.54,1.63,0.02,3.43,1.39,4.46c2.59,1.94,3.1,5.45,3.77,11.48   c0.57,5.13,1.29,11.53,4.48,17.9c1.54,3.08,5.98,9.68,16.16,11.44c-0.01,0.06-0.02,0.11-0.03,0.17   c-0.05,1.02-0.45,10.07,2.17,12.83c0.8,0.85,1.87,1.31,3.02,1.31c0.59,0,1.22-0.14,1.75-0.39c0.26-0.12,0.52-0.25,0.77-0.37   c0.01,0.08,0.02,0.16,0.04,0.24c0.29,1.62,1.55,2.89,3.16,3.21c4.11,0.81,8.08,1.22,11.8,1.22c18.4,0,31.98-9.85,39.28-28.48   C97.94,43.14,98,29.82,98,29.26C98,27.54,96.9,26.01,95.26,25.47z M18.09,53.7c-6.28-12.57-1.88-25.13-9.42-30.79   c0,0,29.07,0.01,34.47,20.66c-0.05,0.47-0.03,0.95,0.09,1.43c0.48,1.91,0.73,3.95,0.77,6.12c-0.03,2.16-0.27,4.47-0.77,6.97   c0,0-13.19-21.36-23.25-27.65c0,0,10.05,8.17,21.36,32.04c0.14,0.3-2.12,0.88-5.34,0.88c-0.02,0-0.05,0-0.07,0   c-0.31-0.01-0.63-0.03-0.95-0.06c-0.11-0.01-0.22-0.01-0.33-0.01c-0.08,0-0.16,0.02-0.24,0.02C28.95,63.01,21.7,60.92,18.09,53.7z    M53.36,81.14c-3.39,0-7.06-0.36-11.03-1.14c0,0,31.37-19.37,40.59-34.14c0,0-11.99,14.76-47.05,31.37   c-0.01,0.01-0.03,0.01-0.04,0.01c-0.51,0-1.49-4.27-1.2-9.91c0.32,0.01,0.63,0.03,0.96,0.04c0.48,0.03,0.96,0.04,1.42,0.04   c0,0,0,0,0,0c2.95,0,5.32-0.46,6.43-1c0.5-0.24,0.9-0.56,1.19-0.92l2.52-5.81c0.58-2.94,0.85-5.74,0.83-8.4   c0.05-2.59-0.17-5.05-0.66-7.38c0.47-0.28,0.95-0.55,1.46-0.8C67.25,33.87,85.7,40.33,94,29.26C94,29.26,94,81.14,53.36,81.14z"/></g></svg>